{
  "source": "C:\\Users\\Peter\\Desktop\\stuff\\MIUN\\quantitative_research\\video_compression\\videos\\BVI-HD\\BVI-HD_CDVL_videos\\ORIG\\Lightreef_1920x1080_30fps.mp4",
  "output": "C:\\Users\\Peter\\Desktop\\stuff\\MIUN\\quantitative_research\\video_compression\\compressed_videos\\BVI-HD\\vp9\\1.5\\Lightreef_1920x1080_30fps_vp9.webm",
  "codec": "vp9",
  "ok": "Input #0, mov,mp4,m4a,3gp,3g2,mj2, from 'C:\\Users\\Peter\\Desktop\\stuff\\MIUN\\quantitative_research\\video_compression\\videos\\BVI-HD\\BVI-HD_CDVL_videos\\ORIG\\Lightreef_1920x1080_30fps.mp4':\n  Metadata:\n    major_brand     : isom\n    minor_version   : 512\n    compatible_brands: isomiso2avc1mp41\n    encoder         : Lavf54.28.101\n  Duration: 00:00:05.00, start: 0.000000, bitrate: 361719 kb/s\n  Stream #0:0[0x1](und): Video: h264 (High 4:4:4 Predictive) (avc1 / 0x31637661), yuv420p(progressive), 1920x1080, 361715 kb/s, 30 fps, 30 tbr, 30 tbn (default)\n    Metadata:\n      handler_name    : VideoHandler\n      vendor_id       : [0][0][0][0]\n[out#0/webm @ 0000019ca9720b80] Codec AVOption b:a (set bitrate (in bits/s)) has not been used for any stream. The most likely reason is either wrong type (e.g. a video option with no video streams) or that it is a private option of some decoder which was not actually used for any stream.\nStream mapping:\n  Stream #0:0 -> #0:0 (h264 (native) -> vp9 (libvpx-vp9))\nPress [q] to stop, [?] for help\n[libvpx-vp9 @ 0000019caa2907c0] v1.15.2-100-g40561f514\nOutput #0, webm, to 'C:\\Users\\Peter\\Desktop\\stuff\\MIUN\\quantitative_research\\video_compression\\compressed_videos\\BVI-HD\\vp9\\1.5\\Lightreef_1920x1080_30fps_vp9.webm':\n  Metadata:\n    major_brand     : isom\n    minor_version   : 512\n    compatible_brands: isomiso2avc1mp41\n    encoder         : Lavf62.3.100\n  Stream #0:0(und): Video: vp9, yuv420p(tv, progressive), 1920x1080, q=2-31, 1500 kb/s, 30 fps, 1k tbn (default)\n    Metadata:\n      encoder         : Lavc62.11.100 libvpx-vp9\n      handler_name    : VideoHandler\n      vendor_id       : [0][0][0][0]\n    Side data:\n      cpb: bitrate max/min/avg: 0/0/0 buffer size: 1500000 vbv_delay: N/A\nframe=    0 fps=0.0 q=0.0 size=       0KiB time=N/A bitrate=N/A speed=N/A elapsed=0:00:00.50    \nframe=    1 fps=1.0 q=29.0 size=       1KiB time=00:00:00.03 bitrate= 152.2kbits/s speed=0.0318x elapsed=0:00:01.04    \nframe=    5 fps=3.2 q=57.0 size=       1KiB time=00:00:00.16 bitrate=  30.4kbits/s speed=0.107x elapsed=0:00:01.56    \nframe=   10 fps=4.8 q=58.0 size=       1KiB time=00:00:00.33 bitrate=  15.2kbits/s speed=0.161x elapsed=0:00:02.07    \nframe=   13 fps=5.0 q=56.0 size=       1KiB time=00:00:00.43 bitrate=  11.7kbits/s speed=0.166x elapsed=0:00:02.61    \nframe=   17 fps=5.4 q=57.0 size=       1KiB time=00:00:00.56 bitrate=   9.0kbits/s speed=0.18x elapsed=0:00:03.13    \nframe=   20 fps=5.5 q=57.0 size=       1KiB time=00:00:00.66 bitrate=   7.6kbits/s speed=0.182x elapsed=0:00:03.66    \nframe=   24 fps=5.7 q=56.0 size=       1KiB time=00:00:00.80 bitrate=   6.3kbits/s speed=0.19x elapsed=0:00:04.20    \nframe=   27 fps=5.7 q=57.0 size=       1KiB time=00:00:00.90 bitrate=   5.6kbits/s speed=0.191x elapsed=0:00:04.71    \nframe=   30 fps=5.7 q=57.0 size=       1KiB time=00:00:01.00 bitrate=   5.1kbits/s speed=0.191x elapsed=0:00:05.23    \nframe=   34 fps=5.9 q=56.0 size=       1KiB time=00:00:01.13 bitrate=   4.5kbits/s speed=0.197x elapsed=0:00:05.74    \nframe=   38 fps=6.0 q=56.0 size=       1KiB time=00:00:01.26 bitrate=   4.0kbits/s speed=0.202x elapsed=0:00:06.28    \nframe=   41 fps=6.0 q=48.0 size=       1KiB time=00:00:01.36 bitrate=   3.7kbits/s speed=0.201x elapsed=0:00:06.80    \nframe=   44 fps=6.0 q=54.0 size=       1KiB time=00:00:01.46 bitrate=   3.5kbits/s speed= 0.2x elapsed=0:00:07.33    \nframe=   48 fps=6.1 q=55.0 size=       1KiB time=00:00:01.60 bitrate=   3.2kbits/s speed=0.204x elapsed=0:00:07.85    \nframe=   51 fps=6.1 q=48.0 size=       1KiB time=00:00:01.70 bitrate=   3.0kbits/s speed=0.203x elapsed=0:00:08.39    \nframe=   55 fps=6.2 q=56.0 size=       1KiB time=00:00:01.83 bitrate=   2.8kbits/s speed=0.205x elapsed=0:00:08.93    \nframe=   58 fps=6.1 q=54.0 size=       1KiB time=00:00:01.93 bitrate=   2.6kbits/s speed=0.204x elapsed=0:00:09.46    \nframe=   61 fps=6.1 q=55.0 size=       1KiB time=00:00:02.03 bitrate=   2.5kbits/s speed=0.203x elapsed=0:00:10.00    \nframe=   65 fps=6.2 q=56.0 size=       1KiB time=00:00:02.16 bitrate=   2.3kbits/s speed=0.206x elapsed=0:00:10.53    \nframe=   68 fps=6.1 q=59.0 size=       1KiB time=00:00:02.26 bitrate=   2.2kbits/s speed=0.205x elapsed=0:00:11.05    \nframe=   71 fps=6.1 q=58.0 size=       1KiB time=00:00:02.36 bitrate=   2.1kbits/s speed=0.204x elapsed=0:00:11.57    \nframe=   75 fps=6.2 q=56.0 size=       1KiB time=00:00:02.50 bitrate=   2.0kbits/s speed=0.207x elapsed=0:00:12.09    \nframe=   78 fps=6.2 q=58.0 size=       1KiB time=00:00:02.60 bitrate=   2.0kbits/s speed=0.206x elapsed=0:00:12.62    \nframe=   81 fps=6.2 q=55.0 size=       1KiB time=00:00:02.70 bitrate=   1.9kbits/s speed=0.205x elapsed=0:00:13.16    \nframe=   85 fps=6.2 q=58.0 size=       1KiB time=00:00:02.83 bitrate=   1.8kbits/s speed=0.207x elapsed=0:00:13.68    \nframe=   88 fps=6.2 q=59.0 size=       1KiB time=00:00:02.93 bitrate=   1.7kbits/s speed=0.206x elapsed=0:00:14.20    \nframe=   91 fps=6.2 q=57.0 size=       1KiB time=00:00:03.03 bitrate=   1.7kbits/s speed=0.206x elapsed=0:00:14.71    \nframe=   94 fps=6.2 q=59.0 size=       1KiB time=00:00:03.13 bitrate=   1.6kbits/s speed=0.206x elapsed=0:00:15.24    \nframe=   98 fps=6.2 q=58.0 size=       1KiB time=00:00:03.26 bitrate=   1.6kbits/s speed=0.207x elapsed=0:00:15.76    \nframe=  102 fps=6.3 q=58.0 size=       1KiB time=00:00:03.40 bitrate=   1.5kbits/s speed=0.209x elapsed=0:00:16.27    \nframe=  105 fps=6.2 q=59.0 size=       1KiB time=00:00:03.50 bitrate=   1.4kbits/s speed=0.208x elapsed=0:00:16.81    \nframe=  109 fps=6.3 q=57.0 size=       1KiB time=00:00:03.63 bitrate=   1.4kbits/s speed=0.21x elapsed=0:00:17.32    \nframe=  112 fps=6.3 q=59.0 size=       1KiB time=00:00:03.73 bitrate=   1.4kbits/s speed=0.209x elapsed=0:00:17.84    \nframe=  116 fps=6.3 q=58.0 size=       1KiB time=00:00:03.86 bitrate=   1.3kbits/s speed=0.21x elapsed=0:00:18.37    \nframe=  119 fps=6.3 q=47.0 size=       1KiB time=00:00:03.96 bitrate=   1.3kbits/s speed=0.21x elapsed=0:00:18.88    \nframe=  123 fps=6.3 q=57.0 size=       1KiB time=00:00:04.10 bitrate=   1.2kbits/s speed=0.211x elapsed=0:00:19.42    \nframe=  126 fps=6.3 q=57.0 size=       1KiB time=00:00:04.20 bitrate=   1.2kbits/s speed=0.21x elapsed=0:00:19.95    \nframe=  126 fps=6.1 q=57.0 size=       1KiB time=00:00:04.20 bitrate=   1.2kbits/s speed=0.205x elapsed=0:00:20.49    \nframe=  126 fps=6.0 q=57.0 size=       1KiB time=00:00:04.20 bitrate=   1.2kbits/s speed= 0.2x elapsed=0:00:21.02    \nframe=  126 fps=5.8 q=57.0 size=       1KiB time=00:00:04.20 bitrate=   1.2kbits/s speed=0.195x elapsed=0:00:21.55    \nframe=  126 fps=5.7 q=57.0 size=       1KiB time=00:00:04.20 bitrate=   1.2kbits/s speed=0.19x elapsed=0:00:22.08    \nframe=  126 fps=5.6 q=57.0 size=       1KiB time=00:00:04.20 bitrate=   1.2kbits/s speed=0.186x elapsed=0:00:22.60    \nframe=  126 fps=5.4 q=57.0 size=       1KiB time=00:00:04.20 bitrate=   1.2kbits/s speed=0.182x elapsed=0:00:23.12    \n[out#0/webm @ 0000019ca9720b80] video:1168KiB audio:0KiB subtitle:0KiB other streams:0KiB global headers:0KiB muxing overhead: 0.147609%\nframe=  150 fps=6.4 q=60.0 Lsize=    1169KiB time=00:00:05.00 bitrate=1916.0kbits/s speed=0.214x elapsed=0:00:23.40    \n",
  "seconds": 23.715774536132812,
  "probe_out": {}
}